<svg width="32" height="26" viewBox="0 0 32 26" fill="none" xmlns="http://www.w3.org/2000/svg">
<path d="M31.3591 16.3609V16.3469C31.3566 16.3363 31.3533 16.326 31.3492 16.3159C31.2559 16.0613 31.1474 15.8124 31.0244 15.5706L25.1786 2.28438C25.1223 2.1564 25.0427 2.04004 24.9437 1.94125C24.5259 1.52328 24.0297 1.19172 23.4837 0.965509C22.9377 0.739299 22.3524 0.622869 21.7614 0.622869C21.1704 0.622869 20.5851 0.739299 20.0391 0.965509C19.4931 1.19172 18.9969 1.52328 18.5791 1.94125C18.3688 2.15172 18.2505 2.43689 18.25 2.73438V6.25H13.75V2.73438C13.7501 2.5866 13.7211 2.44024 13.6646 2.30367C13.6082 2.1671 13.5254 2.04299 13.4209 1.93844C13.0031 1.52047 12.5069 1.18891 11.9609 0.962697C11.4149 0.736486 10.8296 0.620056 10.2386 0.620056C9.64755 0.620056 9.06231 0.736486 8.51628 0.962697C7.97024 1.18891 7.47412 1.52047 7.05625 1.93844C6.95732 2.03723 6.87768 2.15359 6.8214 2.28156L0.981245 15.5706C0.858227 15.8124 0.749753 16.0613 0.656401 16.3159C0.652489 16.3256 0.649201 16.3354 0.646558 16.3455C0.646558 16.3455 0.646558 16.3567 0.646558 16.3609C0.0657611 18.0391 0.169671 19.8785 0.935768 21.4806C1.70186 23.0826 3.06843 24.3183 4.7393 24.9197C6.41017 25.5211 8.25074 25.4399 9.86212 24.6936C11.4735 23.9472 12.7259 22.596 13.3478 20.9327C13.6217 20.1855 13.7598 19.3954 13.7556 18.5997V8.5H18.2556V18.6011C18.2515 19.3968 18.3896 20.1869 18.6634 20.9341C19.2854 22.5974 20.5377 23.9486 22.1491 24.695C23.7605 25.4413 25.6011 25.5225 27.2719 24.9211C28.9428 24.3197 30.3094 23.0841 31.0755 21.482C31.8416 19.8799 31.9455 18.0405 31.3647 16.3623L31.3591 16.3609ZM11.2286 20.1578C10.8132 21.2663 9.97769 22.1664 8.9032 22.6632C7.82871 23.1599 6.60176 23.2133 5.48819 22.8117C4.37463 22.4101 3.46415 21.5859 2.95405 20.5177C2.44394 19.4495 2.37528 18.2233 2.76296 17.1048L3.0175 16.5241C3.48532 15.6348 4.2373 14.9277 5.15362 14.5154C6.06995 14.1032 7.0979 14.0094 8.07368 14.2492C9.04946 14.4889 9.91694 15.0483 10.5379 15.8383C11.1588 16.6283 11.4975 17.6033 11.5 18.6081V18.625C11.4999 19.1497 11.4081 19.6704 11.2286 20.1634V20.1578ZM26.5469 22.8536C25.8666 23.1026 25.1364 23.1837 24.4181 23.09C23.6998 22.9964 23.0148 22.7307 22.4211 22.3156C21.8275 21.9005 21.3429 21.3482 21.0084 20.7057C20.674 20.0631 20.4995 19.3494 20.5 18.625V18.6095C20.5037 17.6052 20.8433 16.631 21.4647 15.842C22.0861 15.053 22.9536 14.4945 23.929 14.2555C24.9045 14.0165 25.9319 14.1106 26.8476 14.523C27.7634 14.9354 28.5149 15.6423 28.9825 16.5311L29.237 17.1119C29.6372 18.2302 29.5789 19.4614 29.075 20.537C28.571 21.6126 27.6623 22.4453 26.5469 22.8536Z" fill="#461F0A"/>
</svg>
