<svg width="36" height="43" viewBox="0 0 36 43" fill="none" xmlns="http://www.w3.org/2000/svg">
<path d="M33.5216 5.10889L9.09974 0.796388C8.31629 0.658521 7.51016 0.837459 6.85862 1.29385C6.20708 1.75025 5.76348 2.44673 5.62536 3.23014L0.0472397 34.9176C-0.020986 35.3058 -0.0120482 35.7037 0.0735426 36.0884C0.159133 36.4731 0.319699 36.8372 0.546064 37.1599C0.772429 37.4826 1.06016 37.7574 1.3928 37.9689C1.72545 38.1803 2.0965 38.3241 2.48474 38.392L26.9066 42.7045C27.2949 42.773 27.693 42.7643 28.0779 42.6788C28.4629 42.5934 28.8272 42.4328 29.1501 42.2064C29.4729 41.9801 29.748 41.6922 29.9595 41.3595C30.1711 41.0267 30.3149 40.6554 30.3829 40.267L35.961 8.57951C36.0976 7.79581 35.9174 6.98992 35.46 6.33907C35.0025 5.68823 34.3053 5.24573 33.5216 5.10889ZM19.4066 22.417C19.3454 22.764 19.164 23.0784 18.8941 23.305C18.6243 23.5316 18.2833 23.656 17.931 23.6564C17.843 23.6563 17.7552 23.6488 17.6685 23.6339L9.88724 22.2595C9.51744 22.1686 9.19608 21.9403 8.98834 21.6212C8.7806 21.302 8.70204 20.9158 8.76859 20.5408C8.83513 20.1658 9.04181 19.8302 9.3467 19.602C9.65158 19.3738 10.0318 19.2702 10.4104 19.312L18.1879 20.6789C18.3821 20.7129 18.5677 20.7848 18.7341 20.8906C18.9005 20.9963 19.0444 21.1339 19.1576 21.2953C19.2708 21.4567 19.351 21.6389 19.3938 21.8314C19.4365 22.0238 19.4409 22.2228 19.4066 22.417ZM28.2191 17.8833C28.1579 18.2299 27.9768 18.5441 27.7074 18.7707C27.4379 18.9972 27.0974 19.1218 26.7454 19.1226C26.6567 19.1228 26.5682 19.1147 26.481 19.0983L10.9185 16.3514C10.5266 16.282 10.1784 16.0598 9.95035 15.7337C9.72232 15.4075 9.63318 15.0042 9.70255 14.6123C9.77192 14.2205 9.99412 13.8722 10.3203 13.6442C10.6464 13.4162 11.0498 13.327 11.4416 13.3964L27.0041 16.1451C27.1985 16.1789 27.3843 16.2507 27.5509 16.3563C27.7175 16.462 27.8616 16.5995 27.975 16.761C28.0884 16.9224 28.1688 17.1047 28.2117 17.2972C28.2545 17.4898 28.259 17.689 28.2247 17.8833H28.2191ZM29.2597 11.9733C29.1985 12.3203 29.0171 12.6346 28.7473 12.8613C28.4775 13.0879 28.1365 13.2123 27.7841 13.2126C27.6961 13.2125 27.6083 13.205 27.5216 13.1901L11.9591 10.4414C11.7607 10.4122 11.5701 10.3435 11.3987 10.2393C11.2272 10.1352 11.0784 9.99767 10.9611 9.835C10.8437 9.67232 10.7602 9.48776 10.7154 9.29223C10.6706 9.0967 10.6655 8.89418 10.7004 8.69664C10.7352 8.4991 10.8094 8.31057 10.9184 8.14218C11.0274 7.9738 11.1691 7.82899 11.335 7.71633C11.501 7.60366 11.6879 7.52543 11.8846 7.48626C12.0813 7.44708 12.2839 7.44776 12.4804 7.48826L28.0429 10.2351C28.2374 10.2687 28.4234 10.3403 28.5903 10.4459C28.7571 10.5514 28.9014 10.6889 29.015 10.8504C29.1285 11.0119 29.2091 11.1942 29.2521 11.3869C29.2951 11.5796 29.2996 11.7788 29.2654 11.9733H29.2597Z" fill="#461F0A"/>
</svg>
