<svg width="30" height="30" viewBox="0 0 30 30" fill="none" xmlns="http://www.w3.org/2000/svg">
<path d="M15 30C12.925 30 10.975 29.6062 9.15 28.8187C7.325 28.0312 5.7375 26.9625 4.3875 25.6125C3.0375 24.2625 1.96875 22.675 1.18125 20.85C0.39375 19.025 0 17.075 0 15C0 12.925 0.39375 10.975 1.18125 9.15C1.96875 7.325 3.0375 5.7375 4.3875 4.3875C5.7375 3.0375 7.325 1.96875 9.15 1.18125C10.975 0.39375 12.925 0 15 0C17.075 0 19.025 0.39375 20.85 1.18125C22.675 1.96875 24.2625 3.0375 25.6125 4.3875C26.9625 5.7375 28.0312 7.325 28.8187 9.15C29.6062 10.975 30 12.925 30 15C30 17.075 29.6062 19.025 28.8187 20.85C28.0312 22.675 26.9625 24.2625 25.6125 25.6125C24.2625 26.9625 22.675 28.0312 20.85 28.8187C19.025 29.6062 17.075 30 15 30ZM15 27C18.35 27 21.1875 25.8375 23.5125 23.5125C25.8375 21.1875 27 18.35 27 15C27 14.825 26.9938 14.6437 26.9813 14.4562C26.9688 14.2687 26.9625 14.1125 26.9625 13.9875C26.8375 14.7125 26.5 15.3125 25.95 15.7875C25.4 16.2625 24.75 16.5 24 16.5H21C20.175 16.5 19.4688 16.2063 18.8813 15.6188C18.2938 15.0313 18 14.325 18 13.5V12H12V9C12 8.175 12.2938 7.46875 12.8813 6.88125C13.4688 6.29375 14.175 6 15 6H16.5C16.5 5.425 16.6562 4.91875 16.9688 4.48125C17.2812 4.04375 17.6625 3.6875 18.1125 3.4125C17.6125 3.2875 17.1063 3.1875 16.5938 3.1125C16.0812 3.0375 15.55 3 15 3C11.65 3 8.8125 4.1625 6.4875 6.4875C4.1625 8.8125 3 11.65 3 15H10.5C12.15 15 13.5625 15.5875 14.7375 16.7625C15.9125 17.9375 16.5 19.35 16.5 21V22.5H12V26.625C12.5 26.75 12.9938 26.8438 13.4813 26.9062C13.9688 26.9688 14.475 27 15 27Z" fill="#461F0A"/>
</svg>
