<svg width="45" height="45" viewBox="0 0 45 45" fill="none" xmlns="http://www.w3.org/2000/svg">
<path fill-rule="evenodd" clip-rule="evenodd" d="M28.2273 9.58966C32.1748 9.58966 35.3864 12.8012 35.3864 16.7487V28.2033C35.3864 32.1508 32.1748 35.3624 28.2273 35.3624H16.7727C12.8252 35.3624 9.61365 32.1508 9.61365 28.2033V16.7487C9.61365 12.8012 12.8252 9.58966 16.7727 9.58966H28.2273ZM28.2273 12.4533H16.7727C14.4045 12.4533 12.4773 14.3805 12.4773 16.7487V28.2033C12.4773 30.5715 14.4045 32.4987 16.7727 32.4987H28.2273C30.5955 32.4987 32.5228 30.5715 32.5228 28.2033V16.7487C32.5228 14.3805 30.5955 12.4533 28.2273 12.4533ZM22.5 15.3169C26.4475 15.3169 29.6591 18.5285 29.6591 22.4761C29.6591 26.4236 26.4475 29.6351 22.5 29.6351C18.5525 29.6351 15.3409 26.4236 15.3409 22.4761C15.3409 18.5285 18.5525 15.3169 22.5 15.3169ZM22.5 18.1806C20.1318 18.1806 18.2046 20.1078 18.2046 22.4761C18.2046 24.8442 20.1318 26.7715 22.5 26.7715C24.8683 26.7715 26.7955 24.8442 26.7955 22.4761C26.7955 20.1078 24.8683 18.1806 22.5 18.1806ZM29.6591 13.8851C30.4494 13.8851 31.0909 14.5251 31.0909 15.3169C31.0909 16.1087 30.4494 16.7487 29.6591 16.7487C28.8687 16.7487 28.2273 16.1087 28.2273 15.3169C28.2273 14.5251 28.8687 13.8851 29.6591 13.8851Z" fill="#461F0A"/>
</svg>
