<svg width="192" height="152" viewBox="0 0 192 152" fill="none" xmlns="http://www.w3.org/2000/svg">
<path d="M52.1625 60.5735C52.3012 60.6603 52.6134 60.9204 52.8562 61.1632C53.4112 61.7703 53.5673 63.6261 53.1337 64.3025C52.4053 65.3952 50.8443 65.7421 49.5608 65.083C48.6242 64.6147 48.2947 63.9036 48.3814 62.6201C48.4335 61.805 48.5549 61.5101 48.9538 61.0939C49.2313 60.799 49.6996 60.4868 49.9944 60.4001C50.5321 60.244 51.7115 60.3307 52.1625 60.5735ZM68.9343 67.702C75.0914 68.5345 79.3061 72.8532 79.6877 78.6808C80.0692 84.6126 76.1841 90.18 70.7207 91.5502C68.9863 91.9838 65.7082 91.8104 63.8698 91.2033C58.2849 89.3128 54.8161 84.0922 55.4752 78.5421C55.9955 74.1714 58.3543 70.8239 62.3088 68.8467C64.5809 67.702 66.5408 67.3724 68.9343 67.702ZM53.0297 81.5253C53.0297 93.0939 52.995 95.1578 52.7695 96.0424C51.7982 99.7367 48.5549 101.835 43.8026 101.853H42.0161V99.806V97.7421L44.0974 97.638C47.0286 97.4646 48.1039 96.7361 48.5202 94.5855C48.6242 94.0131 48.6936 88.8098 48.6936 80.8489V68.0315H50.8616H53.0297V81.5253Z" fill="white"/>
<path d="M94.8725 67.6846C98.7576 68.2223 101.862 70.3903 103.614 73.7378C105.574 77.5188 105.609 81.7161 103.683 85.7052C102.244 88.6884 99.5554 90.8044 96.2427 91.5502C89.2356 92.1616 87.3278 90.2494 87.3278 90.2494L87.4839 85.7226C89.9849 87.96 93.5933 88.1941 96.5202 87.0061C102.373 83.7662 101.248 78.3022 99.9543 75.9752C97.2139 70.4424 89.7039 70.2342 86.8595 75.5936C85.8362 77.5361 85.8708 77.0505 85.7668 89.8852L85.6801 101.766H83.512H81.344V89.9719C81.344 79.0798 81.3614 78.0738 81.6736 76.7903C82.8183 71.8819 86.0963 68.6733 90.8833 67.7714C92.3749 67.4939 93.3115 67.4765 94.8725 67.6846Z" fill="white"/>
<path d="M121.461 67.9621C126.595 69.2803 130.168 74.0673 130.168 79.6001C130.168 86.8673 125.45 91.793 118.513 91.793C116.622 91.793 115.217 91.4982 113.535 90.735L112.303 90.18V87.8733V85.5665L114.09 86.4163C116.431 87.5264 117.177 87.6998 119.05 87.5958C120.195 87.5264 120.837 87.3876 121.548 87.0581C124.184 85.8613 125.832 82.9649 125.832 79.5654C125.203 71.7388 115.057 68.9421 111.783 75.9058C110.812 77.883 110.742 90.7871 110.742 90.7871V101.853H108.574H106.389L106.441 89.6597C106.51 76.0098 106.458 76.5995 107.829 73.8071C108.991 71.431 111.072 69.4884 113.604 68.4304C114.367 68.1183 115.356 67.8581 116.813 67.6153C117.576 67.4765 120.438 67.702 121.461 67.9621Z" fill="white"/>
<path d="M144.91 67.702C149.732 68.2917 153.253 71.2402 154.363 75.5762C154.571 76.4088 154.623 77.9697 154.623 84.0229V91.4635L150.2 91.3594L150.114 83.9014L150.027 76.4435C149.437 72.6624 144.925 71.7923 142.742 71.8299C137.869 71.8299 134.781 75.3161 135.163 80.4153C135.388 83.7107 137.366 86.8933 140.436 87.3009C143.891 87.7596 146.836 86.0868 148.639 84.5085L148.726 89.625C148.726 89.625 146.211 92.0315 139.69 91.5502C132.683 90.6657 129.127 82.5659 131.382 75.2987C132.371 72.0727 135.042 69.3844 138.285 68.309C140.522 67.5632 142.465 67.3898 144.91 67.702Z" fill="white"/>
<circle cx="67.5948" cy="79.6379" r="8.06504" fill="#1C1B1F"/>
</svg>
