<svg width="45" height="45" viewBox="0 0 45 45" fill="none" xmlns="http://www.w3.org/2000/svg">
<path d="M31.5526 32.1701H27.7426V26.2035C27.7426 24.7806 27.7172 22.9491 25.761 22.9491C23.7766 22.9491 23.4729 24.4993 23.4729 26.0999V32.1697H19.6629V19.8998H23.3205V21.5766H23.3717C23.7378 20.9508 24.2667 20.4359 24.9022 20.0869C25.5378 19.7379 26.2561 19.5677 26.9806 19.5946C30.8422 19.5946 31.5543 22.1346 31.5543 25.439L31.5526 32.1701ZM15.3639 18.2226C14.9266 18.2227 14.4991 18.0931 14.1354 17.8502C13.7718 17.6073 13.4883 17.2621 13.3209 16.8581C13.1535 16.4541 13.1096 16.0095 13.1949 15.5806C13.2801 15.1517 13.4906 14.7577 13.7998 14.4484C14.1089 14.1392 14.5029 13.9285 14.9318 13.8431C15.3606 13.7577 15.8052 13.8014 16.2092 13.9687C16.6133 14.136 16.9586 14.4193 17.2017 14.7829C17.4447 15.1464 17.5744 15.5739 17.5745 16.0112C17.5746 16.3015 17.5174 16.5891 17.4064 16.8573C17.2953 17.1256 17.1325 17.3694 16.9272 17.5747C16.7219 17.7801 16.4782 17.943 16.21 18.0541C15.9417 18.1653 15.6542 18.2225 15.3639 18.2226ZM17.2689 32.1701H13.4549V19.8998H17.2689V32.1701ZM33.4521 10.2624H11.5403C11.043 10.2568 10.5638 10.4488 10.208 10.7964C9.85219 11.1439 9.64892 11.6185 9.64285 12.1158V34.1185C9.64871 34.6161 9.85185 35.0909 10.2076 35.4388C10.5634 35.7867 11.0428 35.9792 11.5403 35.9739H33.4521C33.9507 35.9801 34.4313 35.7883 34.7886 35.4403C35.1458 35.0924 35.3502 34.617 35.3571 34.1185V12.1142C35.3501 11.6159 35.1454 11.1408 34.7882 10.7933C34.431 10.4457 33.9504 10.2542 33.4521 10.2608" fill="#461F0A"/>
</svg>
