<svg width="84" height="66" viewBox="0 0 84 66" fill="none" xmlns="http://www.w3.org/2000/svg">
<path d="M23.1475 25.9141C23.2078 25.9517 23.3434 26.0647 23.4488 26.1702C23.6899 26.4339 23.7577 27.2399 23.5694 27.5337C23.253 28.0083 22.575 28.1589 22.0176 27.8727C21.6108 27.6693 21.4676 27.3604 21.5053 26.803C21.5279 26.4489 21.5806 26.3209 21.7539 26.1401C21.8744 26.012 22.0778 25.8764 22.2059 25.8388C22.4394 25.771 22.9517 25.8086 23.1475 25.9141ZM30.432 29.0102C33.1063 29.3718 34.9368 31.2475 35.1025 33.7786C35.2683 36.3549 33.5808 38.7731 31.2079 39.3682C30.4546 39.5565 29.0309 39.4812 28.2324 39.2175C25.8067 38.3964 24.3001 36.129 24.5863 33.7184C24.8123 31.82 25.8368 30.3661 27.5544 29.5074C28.5412 29.0102 29.3924 28.8671 30.432 29.0102ZM23.5242 35.0141C23.5242 40.0386 23.5091 40.9351 23.4112 41.3193C22.9893 42.9238 21.5806 43.8353 19.5166 43.8428H18.7407V42.9539V42.0575L19.6446 42.0123C20.9177 41.937 21.3848 41.6206 21.5656 40.6865C21.6108 40.4379 21.6409 38.178 21.6409 34.7203V29.1533H22.5825H23.5242V35.0141Z" fill="#44242D"/>
<path d="M41.6977 29.0027C43.3852 29.2362 44.7336 30.1778 45.4944 31.6317C46.3457 33.2739 46.3607 35.0969 45.5246 36.8295C44.8993 38.1252 43.7317 39.0443 42.2929 39.3682C39.2495 39.6337 38.4209 38.8032 38.4209 38.8032L38.4887 36.8371C39.5749 37.8088 41.1422 37.9105 42.4134 37.3945C44.9555 35.9873 44.467 33.6142 43.9049 32.6035C42.7147 30.2004 39.4529 30.11 38.2175 32.4377C37.773 33.2814 37.7881 33.0705 37.7429 38.645L37.7052 43.8052H36.7636H35.8219V38.6827C35.8219 33.9519 35.8295 33.515 35.9651 32.9575C36.4623 30.8257 37.886 29.432 39.9651 29.0403C40.613 28.9198 41.0198 28.9123 41.6977 29.0027Z" fill="#44242D"/>
<path d="M53.246 29.1232C55.4758 29.6957 57.0276 31.7748 57.0276 34.1779C57.0276 37.3342 54.9786 39.4736 51.9653 39.4736C51.1442 39.4736 50.5341 39.3456 49.8034 39.0141L49.2685 38.7731V37.7712V36.7693L50.0444 37.1384C51.0614 37.6205 51.3853 37.6958 52.1989 37.6506C52.6961 37.6205 52.9748 37.5602 53.2836 37.4171C54.4287 36.8973 55.1443 35.6393 55.1443 34.1628C54.8712 30.7635 50.4644 29.5488 49.0425 32.5733C48.6207 33.4321 48.5905 39.0367 48.5905 39.0367V43.8428H47.6489H46.6997L46.7223 38.5471C46.7524 32.6185 46.7298 32.8747 47.325 31.6618C47.8297 30.6298 48.7337 29.7861 49.8335 29.3266C50.1649 29.191 50.5943 29.078 51.2271 28.9725C51.5586 28.9123 52.8015 29.0102 53.246 29.1232Z" fill="#44242D"/>
<path d="M63.4307 29.0102C65.5249 29.2663 67.0541 30.5469 67.5362 32.4302C67.6266 32.7918 67.6492 33.4698 67.6492 36.0988V39.3305L65.7283 39.2853L65.6906 36.0461L65.653 32.8069C65.3968 31.1646 63.437 30.7867 62.4891 30.8031C60.3723 30.8031 59.0314 32.3172 59.1971 34.5319C59.295 35.9632 60.1538 37.3455 61.4872 37.5226C62.9879 37.7218 64.2669 36.9953 65.0503 36.3097L65.088 38.532C65.088 38.532 63.9957 39.5772 61.1632 39.3682C58.1199 38.984 56.5756 35.466 57.5549 32.3097C57.9843 30.9085 59.1444 29.7409 60.5531 29.2738C61.5248 28.9499 62.3685 28.8746 63.4307 29.0102Z" fill="#44242D"/>
<circle cx="29.8491" cy="34.1945" r="3.50289" fill="#FFFBF7"/>
</svg>
