<svg width="34" height="40" viewBox="0 0 34 40" fill="none" xmlns="http://www.w3.org/2000/svg">
<path d="M30.2206 6.26688C27.9575 2.3875 24.86 0.25 21.5 0.25H12.5C9.14 0.25 6.0425 2.3875 3.77938 6.26688C1.66438 9.89125 0.5 14.6875 0.5 19.75C0.5 24.8125 1.66438 29.6088 3.77938 33.2331C6.0425 37.1125 9.14 39.25 12.5 39.25H21.5C24.86 39.25 27.9575 37.1125 30.2206 33.2331C32.3356 29.6088 33.5 24.8125 33.5 19.75C33.5 14.6875 32.3356 9.89125 30.2206 6.26688ZM30.4606 18.25H24.4606C24.3434 15.1719 23.7306 12.1329 22.6456 9.25H28.3812C29.5287 11.7587 30.2862 14.875 30.4606 18.25ZM26.5981 6.25H21.2113C20.5847 5.16309 19.8293 4.15581 18.9613 3.25H21.5C23.375 3.25 25.1375 4.375 26.5981 6.25ZM21.5 36.25H18.9669C19.8349 35.3442 20.5903 34.3369 21.2169 33.25H26.6038C25.1375 35.125 23.375 36.25 21.5 36.25ZM28.3812 30.25H22.6475C23.7324 27.3671 24.3453 24.3281 24.4625 21.25H30.4625C30.2863 24.625 29.5287 27.7412 28.3812 30.25Z" fill="#461F0A"/>
</svg>
