<svg width="48" height="49" viewBox="0 0 48 49" fill="none" xmlns="http://www.w3.org/2000/svg">
<path d="M44.9138 12.5625C44.8213 12.1785 44.6536 11.8167 44.4202 11.4981C44.1869 11.1794 43.8926 10.9103 43.5544 10.7063C37.656 7.13813 30.8937 5.25191 24 5.25191C17.1063 5.25191 10.344 7.13813 4.44563 10.7063C4.10842 10.9108 3.81484 11.1798 3.58169 11.4978C3.34855 11.8159 3.1804 12.1769 3.08688 12.56C2.99337 12.9431 2.97631 13.3409 3.03668 13.7306C3.09706 14.1204 3.23369 14.4944 3.43875 14.8313L21.4388 44.3194C21.7062 44.7602 22.0827 45.1247 22.532 45.3777C22.9812 45.6306 23.4881 45.7635 24.0038 45.7635C24.5194 45.7635 25.0263 45.6306 25.4755 45.3777C25.9248 45.1247 26.3013 44.7602 26.5688 44.3194L44.5688 14.8313C44.7741 14.495 44.9103 14.1211 44.9695 13.7316C45.0288 13.3421 45.0098 12.9446 44.9138 12.5625ZM34.5825 25.4119C32.9153 24.6551 31.0288 24.5344 29.2787 25.0725C27.5286 25.6105 26.0358 26.7702 25.0816 28.3328C24.1274 29.8955 23.7779 31.7532 24.0988 33.5558C24.4197 35.3584 25.3889 36.9814 26.8238 38.1188L24 42.75L18.0938 33.0806C19.0634 32.6437 19.9291 32.0055 20.6332 31.2084C21.3374 30.4113 21.864 29.4736 22.178 28.4575C22.4921 27.4413 22.5864 26.37 22.4548 25.3146C22.3232 24.2592 21.9686 23.2439 21.4146 22.336C20.8605 21.4281 20.1198 20.6485 19.2414 20.0488C18.363 19.4491 17.3671 19.043 16.3198 18.8576C15.2725 18.6722 14.1978 18.7117 13.1669 18.9734C12.1361 19.2351 11.1726 19.7131 10.3406 20.3756L9.15 18.4238C13.6219 15.694 18.7598 14.2498 23.9991 14.2498C29.2383 14.2498 34.3762 15.694 38.8481 18.4238L34.5825 25.4119Z" fill="#461F0A"/>
</svg>
