<svg width="42" height="41" viewBox="0 0 42 41" fill="none" xmlns="http://www.w3.org/2000/svg">
<path d="M41.9138 7.5625C41.8213 7.17851 41.6536 6.8167 41.4202 6.49805C41.1869 6.1794 40.8926 5.91026 40.5544 5.70625C34.656 2.13813 27.8937 0.251907 21 0.251907C14.1063 0.251907 7.34404 2.13813 1.44563 5.70625C1.10842 5.91076 0.814841 6.17975 0.581693 6.49784C0.348546 6.81592 0.180403 7.17685 0.0868843 7.55998C-0.00663419 7.94311 -0.0236928 8.34092 0.0366841 8.73065C0.097061 9.12038 0.233689 9.49438 0.43875 9.83125L18.4388 39.3194C18.7062 39.7602 19.0827 40.1247 19.532 40.3777C19.9812 40.6306 20.4881 40.7635 21.0038 40.7635C21.5194 40.7635 22.0263 40.6306 22.4755 40.3777C22.9248 40.1247 23.3013 39.7602 23.5688 39.3194L41.5688 9.83125C41.7741 9.49496 41.9103 9.12113 41.9695 8.73159C42.0288 8.34206 42.0098 7.94463 41.9138 7.5625ZM31.5825 20.4119C29.9153 19.6551 28.0288 19.5344 26.2787 20.0725C24.5286 20.6105 23.0358 21.7702 22.0816 23.3328C21.1274 24.8955 20.7779 26.7532 21.0988 28.5558C21.4197 30.3584 22.3889 31.9814 23.8238 33.1188L21 37.75L15.0938 28.0806C16.0634 27.6437 16.9291 27.0055 17.6332 26.2084C18.3374 25.4113 18.864 24.4736 19.178 23.4575C19.4921 22.4413 19.5864 21.37 19.4548 20.3146C19.3232 19.2592 18.9686 18.2439 18.4146 17.336C17.8605 16.4281 17.1198 15.6485 16.2414 15.0488C15.363 14.4491 14.3671 14.043 13.3198 13.8576C12.2725 13.6722 11.1978 13.7117 10.1669 13.9734C9.13606 14.2351 8.17265 14.7131 7.34063 15.3756L6.15 13.4238C10.6219 10.694 15.7598 9.24977 20.9991 9.24977C26.2383 9.24977 31.3762 10.694 35.8481 13.4238L31.5825 20.4119Z" fill="#461F0A"/>
</svg>
