<svg width="28" height="29" viewBox="0 0 28 29" fill="none" xmlns="http://www.w3.org/2000/svg">
<path d="M27.5 27.375C27.5 27.6734 27.3815 27.9595 27.1705 28.1705C26.9595 28.3815 26.6734 28.5 26.375 28.5H1.625C1.32663 28.5 1.04048 28.3815 0.829505 28.1705C0.618527 27.9595 0.5 27.6734 0.5 27.375C0.5 27.0766 0.618527 26.7905 0.829505 26.5795C1.04048 26.3685 1.32663 26.25 1.625 26.25H26.375C26.6734 26.25 26.9595 26.3685 27.1705 26.5795C27.3815 26.7905 27.5 27.0766 27.5 27.375ZM17.375 24H23C23.5967 24 24.169 23.7629 24.591 23.341C25.0129 22.919 25.25 22.3467 25.25 21.75V8.25C25.25 7.65326 25.0129 7.08097 24.591 6.65901C24.169 6.23705 23.5967 6 23 6H17.375C16.7783 6 16.206 6.23705 15.784 6.65901C15.3621 7.08097 15.125 7.65326 15.125 8.25V21.75C15.125 22.3467 15.3621 22.919 15.784 23.341C16.206 23.7629 16.7783 24 17.375 24ZM5 24H10.625C11.2217 24 11.794 23.7629 12.216 23.341C12.6379 22.919 12.875 22.3467 12.875 21.75V2.625C12.875 2.02826 12.6379 1.45597 12.216 1.03401C11.794 0.612053 11.2217 0.375 10.625 0.375H5C4.40326 0.375 3.83097 0.612053 3.40901 1.03401C2.98705 1.45597 2.75 2.02826 2.75 2.625V21.75C2.75 22.3467 2.98705 22.919 3.40901 23.341C3.83097 23.7629 4.40326 24 5 24Z" fill="#461F0A"/>
</svg>
