<svg width="45" height="45" viewBox="0 0 45 45" fill="none" xmlns="http://www.w3.org/2000/svg">
<path d="M29.9199 15.3277C29.2179 14.871 28.616 14.2766 28.1504 13.5805C27.6848 12.8844 27.3655 12.101 27.2116 11.2778C27.1422 10.9062 27.1071 10.529 27.1068 10.151H22.6653L22.6584 27.9453C22.6304 28.6767 22.3879 29.3836 21.9611 29.9781C21.5344 30.5725 20.9422 31.0284 20.2582 31.2889C19.5743 31.5492 18.8289 31.6028 18.1148 31.4426C17.4007 31.2826 16.7494 30.916 16.2421 30.3886C15.7348 29.8612 15.3938 29.1961 15.2617 28.4763C15.1295 27.7566 15.212 27.0137 15.4988 26.3405C15.7857 25.6672 16.2642 25.0932 16.8749 24.6898C17.4855 24.2865 18.2013 24.0718 18.9332 24.0722C19.3069 24.0732 19.6783 24.1314 20.0345 24.2447V19.7122C19.6696 19.6608 19.3017 19.6341 18.9332 19.6325C14.4262 19.6325 10.7609 23.2986 10.7609 27.8048C10.7643 29.9714 11.6266 32.0483 13.1587 33.5801C14.6909 35.1121 16.7679 35.974 18.9345 35.9771C23.4407 35.9771 27.1068 32.3118 27.1068 27.8048V18.7817C28.9063 20.0759 31.0673 20.7708 33.2839 20.7683V16.3268C32.0892 16.3282 30.9202 15.9809 29.9199 15.3277Z" fill="#461F0A"/>
</svg>
