<svg width="27" height="18" viewBox="0 0 27 18" fill="none" xmlns="http://www.w3.org/2000/svg">
<path fill-rule="evenodd" clip-rule="evenodd" d="M6.04851 0.916504C3.05696 0.916504 0.631836 3.34163 0.631836 6.3332V11.7498C0.631836 14.7414 3.05696 17.1665 6.04851 17.1665H15.7985C18.3489 17.1665 20.4877 15.4038 21.0629 13.0302L23.3504 14.4027C24.7945 15.2692 26.6318 14.2289 26.6318 12.5448V5.5382C26.6318 3.85408 24.7945 2.81383 23.3504 3.68032L21.0629 5.05278C20.4877 2.67919 18.3489 0.916504 15.7985 0.916504H6.04851ZM21.2151 7.4882V10.5948L24.4651 12.5448V5.5382L21.2151 7.4882ZM2.79851 6.3332C2.79851 4.53825 4.25358 3.08317 6.04851 3.08317H15.7985C17.5934 3.08317 19.0485 4.53825 19.0485 6.3332V11.7498C19.0485 13.5448 17.5934 14.9998 15.7985 14.9998H6.04851C4.25358 14.9998 2.79851 13.5448 2.79851 11.7498V6.3332Z" fill="white"/>
</svg>
