<svg width="45" height="45" viewBox="0 0 45 45" fill="none" xmlns="http://www.w3.org/2000/svg">
<mask id="mask0_2001_99" style="mask-type:luminance" maskUnits="userSpaceOnUse" x="9" y="10" width="27" height="26">
<path d="M35.46 10.0589H9.53999V35.9789H35.46V10.0589Z" fill="white"/>
</mask>
<g mask="url(#mask0_2001_99)">
<path fill-rule="evenodd" clip-rule="evenodd" d="M22.9548 13.7862C24.6916 13.7957 30.8943 13.8625 32.6269 14.3298C33.7423 14.6298 34.6204 15.5139 34.9185 16.6363C35.4602 18.6709 35.4602 22.9157 35.4602 22.9157V22.9329C35.4595 23.2271 35.4401 27.2359 34.9185 29.1953C34.6204 30.3176 33.7423 31.2016 32.6269 31.5017C30.8365 31.9845 24.2731 32.0397 22.7963 32.0459H22.2035C20.7267 32.0397 14.1633 31.9845 12.3728 31.5017C11.2577 31.2016 10.3793 30.3176 10.0812 29.1953C9.61991 27.4621 9.55157 24.1249 9.54144 23.1742V22.6572C9.55157 21.7064 9.61991 18.3695 10.0812 16.6363C10.3793 15.5139 11.2577 14.6298 12.3728 14.3298C14.1055 13.8625 20.3082 13.7957 22.0451 13.7862H22.9548ZM19.849 19.0618V26.7698L26.6236 22.9158L19.849 19.0618Z" fill="#461F0A"/>
</g>
</svg>
